<mxfile host="app.diagrams.net" agent="Mozilla/5.0 (X11; Linux x86_64) AppleWebKit/537.36 (KHTML, like Gecko) Chrome/130.0.0.0 Safari/537.36" version="24.8.8">
  <diagram id="C5RBs43oDa-KdzZeNtuy" name="Page-1">
    <mxGraphModel dx="1554" dy="813" grid="1" gridSize="10" guides="1" tooltips="1" connect="1" arrows="1" fold="1" page="1" pageScale="1" pageWidth="827" pageHeight="1169" math="0" shadow="0">
      <root>
        <mxCell id="WIyWlLk6GJQsqaUBKTNV-0" />
        <mxCell id="WIyWlLk6GJQsqaUBKTNV-1" parent="WIyWlLk6GJQsqaUBKTNV-0" />
        <mxCell id="ozT5iislFc4H9YeLrhFL-5" value="" style="edgeStyle=orthogonalEdgeStyle;rounded=0;orthogonalLoop=1;jettySize=auto;html=1;" edge="1" parent="WIyWlLk6GJQsqaUBKTNV-1" source="ozT5iislFc4H9YeLrhFL-0" target="ozT5iislFc4H9YeLrhFL-3">
          <mxGeometry relative="1" as="geometry" />
        </mxCell>
        <mxCell id="ozT5iislFc4H9YeLrhFL-0" value="Setup" style="rounded=1;whiteSpace=wrap;html=1;" vertex="1" parent="WIyWlLk6GJQsqaUBKTNV-1">
          <mxGeometry x="175" y="130" width="120" height="40" as="geometry" />
        </mxCell>
        <mxCell id="ozT5iislFc4H9YeLrhFL-2" value="" style="edgeStyle=orthogonalEdgeStyle;rounded=0;orthogonalLoop=1;jettySize=auto;html=1;" edge="1" parent="WIyWlLk6GJQsqaUBKTNV-1" source="ozT5iislFc4H9YeLrhFL-1" target="ozT5iislFc4H9YeLrhFL-0">
          <mxGeometry relative="1" as="geometry" />
        </mxCell>
        <mxCell id="ozT5iislFc4H9YeLrhFL-1" value="Start" style="ellipse;whiteSpace=wrap;html=1;" vertex="1" parent="WIyWlLk6GJQsqaUBKTNV-1">
          <mxGeometry x="180" y="40" width="110" height="60" as="geometry" />
        </mxCell>
        <mxCell id="ozT5iislFc4H9YeLrhFL-4" style="edgeStyle=orthogonalEdgeStyle;rounded=0;orthogonalLoop=1;jettySize=auto;html=1;exitX=0;exitY=0.5;exitDx=0;exitDy=0;" edge="1" parent="WIyWlLk6GJQsqaUBKTNV-1" source="ozT5iislFc4H9YeLrhFL-3">
          <mxGeometry relative="1" as="geometry">
            <mxPoint x="235" y="190" as="targetPoint" />
            <Array as="points">
              <mxPoint x="148" y="265" />
              <mxPoint x="148" y="190" />
            </Array>
          </mxGeometry>
        </mxCell>
        <mxCell id="ozT5iislFc4H9YeLrhFL-28" value="No" style="edgeLabel;html=1;align=center;verticalAlign=middle;resizable=0;points=[];" vertex="1" connectable="0" parent="ozT5iislFc4H9YeLrhFL-4">
          <mxGeometry x="-0.2831" y="-2" relative="1" as="geometry">
            <mxPoint as="offset" />
          </mxGeometry>
        </mxCell>
        <mxCell id="ozT5iislFc4H9YeLrhFL-9" value="" style="edgeStyle=orthogonalEdgeStyle;rounded=0;orthogonalLoop=1;jettySize=auto;html=1;" edge="1" parent="WIyWlLk6GJQsqaUBKTNV-1" source="ozT5iislFc4H9YeLrhFL-3" target="ozT5iislFc4H9YeLrhFL-8">
          <mxGeometry relative="1" as="geometry" />
        </mxCell>
        <mxCell id="ozT5iislFc4H9YeLrhFL-29" value="Yes" style="edgeLabel;html=1;align=center;verticalAlign=middle;resizable=0;points=[];" vertex="1" connectable="0" parent="ozT5iislFc4H9YeLrhFL-9">
          <mxGeometry x="-0.5281" y="-3" relative="1" as="geometry">
            <mxPoint as="offset" />
          </mxGeometry>
        </mxCell>
        <mxCell id="ozT5iislFc4H9YeLrhFL-3" value="Has Data Been&lt;div&gt;Received?&lt;/div&gt;" style="rhombus;whiteSpace=wrap;html=1;" vertex="1" parent="WIyWlLk6GJQsqaUBKTNV-1">
          <mxGeometry x="167.5" y="210" width="135" height="110" as="geometry" />
        </mxCell>
        <mxCell id="ozT5iislFc4H9YeLrhFL-12" style="edgeStyle=orthogonalEdgeStyle;rounded=0;orthogonalLoop=1;jettySize=auto;html=1;entryX=0.5;entryY=1;entryDx=0;entryDy=0;" edge="1" parent="WIyWlLk6GJQsqaUBKTNV-1" source="ozT5iislFc4H9YeLrhFL-8" target="ozT5iislFc4H9YeLrhFL-11">
          <mxGeometry relative="1" as="geometry" />
        </mxCell>
        <mxCell id="ozT5iislFc4H9YeLrhFL-31" value="No" style="edgeLabel;html=1;align=center;verticalAlign=middle;resizable=0;points=[];" vertex="1" connectable="0" parent="ozT5iislFc4H9YeLrhFL-12">
          <mxGeometry x="-0.4533" relative="1" as="geometry">
            <mxPoint x="-13" as="offset" />
          </mxGeometry>
        </mxCell>
        <mxCell id="ozT5iislFc4H9YeLrhFL-15" value="" style="edgeStyle=orthogonalEdgeStyle;rounded=0;orthogonalLoop=1;jettySize=auto;html=1;" edge="1" parent="WIyWlLk6GJQsqaUBKTNV-1" source="ozT5iislFc4H9YeLrhFL-8" target="ozT5iislFc4H9YeLrhFL-14">
          <mxGeometry relative="1" as="geometry" />
        </mxCell>
        <mxCell id="ozT5iislFc4H9YeLrhFL-30" value="Yes" style="edgeLabel;html=1;align=center;verticalAlign=middle;resizable=0;points=[];" vertex="1" connectable="0" parent="ozT5iislFc4H9YeLrhFL-15">
          <mxGeometry x="-0.6225" y="-3" relative="1" as="geometry">
            <mxPoint as="offset" />
          </mxGeometry>
        </mxCell>
        <mxCell id="ozT5iislFc4H9YeLrhFL-8" value="Is Pitch Within&lt;div&gt;Limits of Bass?&lt;/div&gt;" style="rhombus;whiteSpace=wrap;html=1;" vertex="1" parent="WIyWlLk6GJQsqaUBKTNV-1">
          <mxGeometry x="172.5" y="360" width="125" height="120" as="geometry" />
        </mxCell>
        <mxCell id="ozT5iislFc4H9YeLrhFL-13" style="edgeStyle=orthogonalEdgeStyle;rounded=0;orthogonalLoop=1;jettySize=auto;html=1;entryX=1;entryY=0.5;entryDx=0;entryDy=0;exitX=0.5;exitY=0;exitDx=0;exitDy=0;" edge="1" parent="WIyWlLk6GJQsqaUBKTNV-1" source="ozT5iislFc4H9YeLrhFL-11" target="ozT5iislFc4H9YeLrhFL-3">
          <mxGeometry relative="1" as="geometry">
            <Array as="points">
              <mxPoint x="380" y="265" />
            </Array>
          </mxGeometry>
        </mxCell>
        <mxCell id="ozT5iislFc4H9YeLrhFL-11" value="Clear Data" style="rounded=1;whiteSpace=wrap;html=1;" vertex="1" parent="WIyWlLk6GJQsqaUBKTNV-1">
          <mxGeometry x="320" y="310" width="120" height="60" as="geometry" />
        </mxCell>
        <mxCell id="ozT5iislFc4H9YeLrhFL-19" value="" style="edgeStyle=orthogonalEdgeStyle;rounded=0;orthogonalLoop=1;jettySize=auto;html=1;" edge="1" parent="WIyWlLk6GJQsqaUBKTNV-1" source="ozT5iislFc4H9YeLrhFL-14" target="ozT5iislFc4H9YeLrhFL-18">
          <mxGeometry relative="1" as="geometry" />
        </mxCell>
        <mxCell id="ozT5iislFc4H9YeLrhFL-14" value="String Select" style="rounded=1;whiteSpace=wrap;html=1;" vertex="1" parent="WIyWlLk6GJQsqaUBKTNV-1">
          <mxGeometry x="175" y="510" width="120" height="60" as="geometry" />
        </mxCell>
        <mxCell id="ozT5iislFc4H9YeLrhFL-16" value="See String Select Flowchart" style="text;html=1;align=center;verticalAlign=middle;whiteSpace=wrap;rounded=0;" vertex="1" parent="WIyWlLk6GJQsqaUBKTNV-1">
          <mxGeometry x="57.5" y="500" width="110" height="70" as="geometry" />
        </mxCell>
        <mxCell id="ozT5iislFc4H9YeLrhFL-37" value="" style="edgeStyle=orthogonalEdgeStyle;rounded=0;orthogonalLoop=1;jettySize=auto;html=1;" edge="1" parent="WIyWlLk6GJQsqaUBKTNV-1" source="ozT5iislFc4H9YeLrhFL-18" target="ozT5iislFc4H9YeLrhFL-36">
          <mxGeometry relative="1" as="geometry" />
        </mxCell>
        <mxCell id="ozT5iislFc4H9YeLrhFL-18" value="Send I2C data&amp;nbsp;&lt;div&gt;to String Slave&lt;/div&gt;" style="shape=parallelogram;perimeter=parallelogramPerimeter;whiteSpace=wrap;html=1;fixedSize=1;" vertex="1" parent="WIyWlLk6GJQsqaUBKTNV-1">
          <mxGeometry x="175" y="610" width="120" height="60" as="geometry" />
        </mxCell>
        <mxCell id="ozT5iislFc4H9YeLrhFL-22" style="edgeStyle=orthogonalEdgeStyle;rounded=0;orthogonalLoop=1;jettySize=auto;html=1;" edge="1" parent="WIyWlLk6GJQsqaUBKTNV-1" source="ozT5iislFc4H9YeLrhFL-20">
          <mxGeometry relative="1" as="geometry">
            <mxPoint x="380" y="430" as="targetPoint" />
          </mxGeometry>
        </mxCell>
        <mxCell id="ozT5iislFc4H9YeLrhFL-20" value="Send I2C data to Plucking Slave" style="shape=parallelogram;perimeter=parallelogramPerimeter;whiteSpace=wrap;html=1;fixedSize=1;" vertex="1" parent="WIyWlLk6GJQsqaUBKTNV-1">
          <mxGeometry x="175" y="850" width="120" height="60" as="geometry" />
        </mxCell>
        <mxCell id="ozT5iislFc4H9YeLrhFL-62" value="" style="edgeStyle=orthogonalEdgeStyle;rounded=0;orthogonalLoop=1;jettySize=auto;html=1;" edge="1" parent="WIyWlLk6GJQsqaUBKTNV-1" source="ozT5iislFc4H9YeLrhFL-23" target="ozT5iislFc4H9YeLrhFL-61">
          <mxGeometry relative="1" as="geometry" />
        </mxCell>
        <mxCell id="ozT5iislFc4H9YeLrhFL-23" value="ISR" style="ellipse;whiteSpace=wrap;html=1;" vertex="1" parent="WIyWlLk6GJQsqaUBKTNV-1">
          <mxGeometry x="590" y="80" width="140" height="70" as="geometry" />
        </mxCell>
        <mxCell id="ozT5iislFc4H9YeLrhFL-27" value="" style="edgeStyle=orthogonalEdgeStyle;rounded=0;orthogonalLoop=1;jettySize=auto;html=1;exitX=0.5;exitY=1;exitDx=0;exitDy=0;" edge="1" parent="WIyWlLk6GJQsqaUBKTNV-1" source="ozT5iislFc4H9YeLrhFL-24" target="ozT5iislFc4H9YeLrhFL-26">
          <mxGeometry relative="1" as="geometry">
            <mxPoint x="660" y="450" as="sourcePoint" />
          </mxGeometry>
        </mxCell>
        <mxCell id="ozT5iislFc4H9YeLrhFL-34" value="No" style="edgeLabel;html=1;align=center;verticalAlign=middle;resizable=0;points=[];" vertex="1" connectable="0" parent="ozT5iislFc4H9YeLrhFL-27">
          <mxGeometry x="-0.2281" y="-1" relative="1" as="geometry">
            <mxPoint as="offset" />
          </mxGeometry>
        </mxCell>
        <mxCell id="ozT5iislFc4H9YeLrhFL-45" value="" style="edgeStyle=orthogonalEdgeStyle;rounded=0;orthogonalLoop=1;jettySize=auto;html=1;" edge="1" parent="WIyWlLk6GJQsqaUBKTNV-1" source="ozT5iislFc4H9YeLrhFL-24" target="ozT5iislFc4H9YeLrhFL-44">
          <mxGeometry relative="1" as="geometry" />
        </mxCell>
        <mxCell id="ozT5iislFc4H9YeLrhFL-24" value="Euart Buffer Full?" style="rhombus;whiteSpace=wrap;html=1;" vertex="1" parent="WIyWlLk6GJQsqaUBKTNV-1">
          <mxGeometry x="590" y="330" width="140" height="100" as="geometry" />
        </mxCell>
        <mxCell id="ozT5iislFc4H9YeLrhFL-33" value="" style="edgeStyle=orthogonalEdgeStyle;rounded=0;orthogonalLoop=1;jettySize=auto;html=1;" edge="1" parent="WIyWlLk6GJQsqaUBKTNV-1" source="ozT5iislFc4H9YeLrhFL-26" target="ozT5iislFc4H9YeLrhFL-32">
          <mxGeometry relative="1" as="geometry" />
        </mxCell>
        <mxCell id="ozT5iislFc4H9YeLrhFL-35" value="Yes" style="edgeLabel;html=1;align=center;verticalAlign=middle;resizable=0;points=[];" vertex="1" connectable="0" parent="ozT5iislFc4H9YeLrhFL-33">
          <mxGeometry x="-0.4113" y="3" relative="1" as="geometry">
            <mxPoint as="offset" />
          </mxGeometry>
        </mxCell>
        <mxCell id="ozT5iislFc4H9YeLrhFL-83" value="" style="edgeStyle=orthogonalEdgeStyle;rounded=0;orthogonalLoop=1;jettySize=auto;html=1;" edge="1" parent="WIyWlLk6GJQsqaUBKTNV-1" source="ozT5iislFc4H9YeLrhFL-26" target="ozT5iislFc4H9YeLrhFL-81">
          <mxGeometry relative="1" as="geometry" />
        </mxCell>
        <mxCell id="ozT5iislFc4H9YeLrhFL-26" value="Address Change?" style="rhombus;whiteSpace=wrap;html=1;" vertex="1" parent="WIyWlLk6GJQsqaUBKTNV-1">
          <mxGeometry x="590" y="490" width="140" height="100" as="geometry" />
        </mxCell>
        <mxCell id="ozT5iislFc4H9YeLrhFL-32" value="Update Device MIDI&lt;div&gt;Address&lt;/div&gt;" style="shape=parallelogram;perimeter=parallelogramPerimeter;whiteSpace=wrap;html=1;fixedSize=1;" vertex="1" parent="WIyWlLk6GJQsqaUBKTNV-1">
          <mxGeometry x="770" y="505" width="160" height="70" as="geometry" />
        </mxCell>
        <mxCell id="ozT5iislFc4H9YeLrhFL-38" value="" style="edgeStyle=orthogonalEdgeStyle;rounded=0;orthogonalLoop=1;jettySize=auto;html=1;" edge="1" parent="WIyWlLk6GJQsqaUBKTNV-1" source="ozT5iislFc4H9YeLrhFL-36" target="ozT5iislFc4H9YeLrhFL-20">
          <mxGeometry relative="1" as="geometry" />
        </mxCell>
        <mxCell id="ozT5iislFc4H9YeLrhFL-41" value="Yes" style="edgeLabel;html=1;align=center;verticalAlign=middle;resizable=0;points=[];" vertex="1" connectable="0" parent="ozT5iislFc4H9YeLrhFL-38">
          <mxGeometry x="-0.4568" y="-2" relative="1" as="geometry">
            <mxPoint as="offset" />
          </mxGeometry>
        </mxCell>
        <mxCell id="ozT5iislFc4H9YeLrhFL-39" style="edgeStyle=orthogonalEdgeStyle;rounded=0;orthogonalLoop=1;jettySize=auto;html=1;exitX=1;exitY=0.5;exitDx=0;exitDy=0;" edge="1" parent="WIyWlLk6GJQsqaUBKTNV-1" source="ozT5iislFc4H9YeLrhFL-36">
          <mxGeometry relative="1" as="geometry">
            <mxPoint x="240" y="700" as="targetPoint" />
            <Array as="points">
              <mxPoint x="310" y="755" />
              <mxPoint x="310" y="700" />
            </Array>
          </mxGeometry>
        </mxCell>
        <mxCell id="ozT5iislFc4H9YeLrhFL-40" value="No" style="edgeLabel;html=1;align=center;verticalAlign=middle;resizable=0;points=[];" vertex="1" connectable="0" parent="ozT5iislFc4H9YeLrhFL-39">
          <mxGeometry x="-0.1666" y="-2" relative="1" as="geometry">
            <mxPoint as="offset" />
          </mxGeometry>
        </mxCell>
        <mxCell id="ozT5iislFc4H9YeLrhFL-36" value="Is String Slave&lt;div&gt;In Position?&lt;/div&gt;" style="rhombus;whiteSpace=wrap;html=1;" vertex="1" parent="WIyWlLk6GJQsqaUBKTNV-1">
          <mxGeometry x="180" y="710" width="110" height="90" as="geometry" />
        </mxCell>
        <mxCell id="ozT5iislFc4H9YeLrhFL-47" value="" style="edgeStyle=orthogonalEdgeStyle;rounded=0;orthogonalLoop=1;jettySize=auto;html=1;" edge="1" parent="WIyWlLk6GJQsqaUBKTNV-1" source="ozT5iislFc4H9YeLrhFL-44" target="ozT5iislFc4H9YeLrhFL-46">
          <mxGeometry relative="1" as="geometry" />
        </mxCell>
        <mxCell id="ozT5iislFc4H9YeLrhFL-48" value="No" style="edgeLabel;html=1;align=center;verticalAlign=middle;resizable=0;points=[];" vertex="1" connectable="0" parent="ozT5iislFc4H9YeLrhFL-47">
          <mxGeometry x="-0.0642" y="-4" relative="1" as="geometry">
            <mxPoint x="-9" y="-4" as="offset" />
          </mxGeometry>
        </mxCell>
        <mxCell id="ozT5iislFc4H9YeLrhFL-64" style="edgeStyle=orthogonalEdgeStyle;rounded=0;orthogonalLoop=1;jettySize=auto;html=1;entryX=0;entryY=0.5;entryDx=0;entryDy=0;" edge="1" parent="WIyWlLk6GJQsqaUBKTNV-1" source="ozT5iislFc4H9YeLrhFL-44" target="ozT5iislFc4H9YeLrhFL-57">
          <mxGeometry relative="1" as="geometry">
            <mxPoint x="880" y="260" as="targetPoint" />
            <Array as="points">
              <mxPoint x="825" y="260" />
            </Array>
          </mxGeometry>
        </mxCell>
        <mxCell id="ozT5iislFc4H9YeLrhFL-44" value="Has CTL Byte&lt;div&gt;Been Received?&lt;/div&gt;" style="rhombus;whiteSpace=wrap;html=1;" vertex="1" parent="WIyWlLk6GJQsqaUBKTNV-1">
          <mxGeometry x="770" y="330" width="110" height="100" as="geometry" />
        </mxCell>
        <mxCell id="ozT5iislFc4H9YeLrhFL-50" style="edgeStyle=orthogonalEdgeStyle;rounded=0;orthogonalLoop=1;jettySize=auto;html=1;" edge="1" parent="WIyWlLk6GJQsqaUBKTNV-1" source="ozT5iislFc4H9YeLrhFL-46">
          <mxGeometry relative="1" as="geometry">
            <mxPoint x="660" y="470" as="targetPoint" />
            <Array as="points">
              <mxPoint x="990" y="470" />
            </Array>
          </mxGeometry>
        </mxCell>
        <mxCell id="ozT5iislFc4H9YeLrhFL-51" value="No" style="edgeLabel;html=1;align=center;verticalAlign=middle;resizable=0;points=[];" vertex="1" connectable="0" parent="ozT5iislFc4H9YeLrhFL-50">
          <mxGeometry x="-0.9358" relative="1" as="geometry">
            <mxPoint as="offset" />
          </mxGeometry>
        </mxCell>
        <mxCell id="ozT5iislFc4H9YeLrhFL-54" value="" style="edgeStyle=orthogonalEdgeStyle;rounded=0;orthogonalLoop=1;jettySize=auto;html=1;" edge="1" parent="WIyWlLk6GJQsqaUBKTNV-1" source="ozT5iislFc4H9YeLrhFL-46" target="ozT5iislFc4H9YeLrhFL-53">
          <mxGeometry relative="1" as="geometry" />
        </mxCell>
        <mxCell id="ozT5iislFc4H9YeLrhFL-55" value="Yes" style="edgeLabel;html=1;align=center;verticalAlign=middle;resizable=0;points=[];" vertex="1" connectable="0" parent="ozT5iislFc4H9YeLrhFL-54">
          <mxGeometry x="0.2239" y="-1" relative="1" as="geometry">
            <mxPoint y="-11" as="offset" />
          </mxGeometry>
        </mxCell>
        <mxCell id="ozT5iislFc4H9YeLrhFL-46" value="Is This Byte&lt;div&gt;For This Address?&lt;/div&gt;" style="rhombus;whiteSpace=wrap;html=1;" vertex="1" parent="WIyWlLk6GJQsqaUBKTNV-1">
          <mxGeometry x="920" y="325" width="140" height="110" as="geometry" />
        </mxCell>
        <mxCell id="ozT5iislFc4H9YeLrhFL-59" value="" style="edgeStyle=orthogonalEdgeStyle;rounded=0;orthogonalLoop=1;jettySize=auto;html=1;" edge="1" parent="WIyWlLk6GJQsqaUBKTNV-1" source="ozT5iislFc4H9YeLrhFL-53" target="ozT5iislFc4H9YeLrhFL-58">
          <mxGeometry relative="1" as="geometry" />
        </mxCell>
        <mxCell id="ozT5iislFc4H9YeLrhFL-53" value="Set Address&lt;div&gt;Receive Flag&lt;/div&gt;" style="shape=parallelogram;perimeter=parallelogramPerimeter;whiteSpace=wrap;html=1;fixedSize=1;" vertex="1" parent="WIyWlLk6GJQsqaUBKTNV-1">
          <mxGeometry x="1090" y="350" width="120" height="60" as="geometry" />
        </mxCell>
        <mxCell id="ozT5iislFc4H9YeLrhFL-68" value="" style="edgeStyle=orthogonalEdgeStyle;rounded=0;orthogonalLoop=1;jettySize=auto;html=1;" edge="1" parent="WIyWlLk6GJQsqaUBKTNV-1" source="ozT5iislFc4H9YeLrhFL-57" target="ozT5iislFc4H9YeLrhFL-65">
          <mxGeometry relative="1" as="geometry" />
        </mxCell>
        <mxCell id="ozT5iislFc4H9YeLrhFL-71" value="Yes" style="edgeLabel;html=1;align=center;verticalAlign=middle;resizable=0;points=[];" vertex="1" connectable="0" parent="ozT5iislFc4H9YeLrhFL-68">
          <mxGeometry x="-0.2971" relative="1" as="geometry">
            <mxPoint as="offset" />
          </mxGeometry>
        </mxCell>
        <mxCell id="ozT5iislFc4H9YeLrhFL-69" value="" style="edgeStyle=orthogonalEdgeStyle;rounded=0;orthogonalLoop=1;jettySize=auto;html=1;" edge="1" parent="WIyWlLk6GJQsqaUBKTNV-1" source="ozT5iislFc4H9YeLrhFL-57" target="ozT5iislFc4H9YeLrhFL-67">
          <mxGeometry relative="1" as="geometry" />
        </mxCell>
        <mxCell id="ozT5iislFc4H9YeLrhFL-70" value="No" style="edgeLabel;html=1;align=center;verticalAlign=middle;resizable=0;points=[];" vertex="1" connectable="0" parent="ozT5iislFc4H9YeLrhFL-69">
          <mxGeometry x="-0.2647" y="-3" relative="1" as="geometry">
            <mxPoint as="offset" />
          </mxGeometry>
        </mxCell>
        <mxCell id="ozT5iislFc4H9YeLrhFL-57" value="Has Pitch&lt;div&gt;Byte Been&amp;nbsp;&lt;/div&gt;&lt;div&gt;Received?&lt;/div&gt;" style="rhombus;whiteSpace=wrap;html=1;" vertex="1" parent="WIyWlLk6GJQsqaUBKTNV-1">
          <mxGeometry x="890" y="210" width="130" height="100" as="geometry" />
        </mxCell>
        <mxCell id="ozT5iislFc4H9YeLrhFL-60" style="edgeStyle=orthogonalEdgeStyle;rounded=0;orthogonalLoop=1;jettySize=auto;html=1;" edge="1" parent="WIyWlLk6GJQsqaUBKTNV-1">
          <mxGeometry relative="1" as="geometry">
            <mxPoint x="990" y="470" as="targetPoint" />
            <mxPoint x="1320" y="400" as="sourcePoint" />
            <Array as="points">
              <mxPoint x="1320" y="470" />
              <mxPoint x="1001" y="470" />
            </Array>
          </mxGeometry>
        </mxCell>
        <mxCell id="ozT5iislFc4H9YeLrhFL-58" value="Store Byte" style="rounded=1;whiteSpace=wrap;html=1;" vertex="1" parent="WIyWlLk6GJQsqaUBKTNV-1">
          <mxGeometry x="1250" y="350" width="120" height="60" as="geometry" />
        </mxCell>
        <mxCell id="ozT5iislFc4H9YeLrhFL-63" value="" style="edgeStyle=orthogonalEdgeStyle;rounded=0;orthogonalLoop=1;jettySize=auto;html=1;" edge="1" parent="WIyWlLk6GJQsqaUBKTNV-1" source="ozT5iislFc4H9YeLrhFL-61" target="ozT5iislFc4H9YeLrhFL-24">
          <mxGeometry relative="1" as="geometry" />
        </mxCell>
        <mxCell id="ozT5iislFc4H9YeLrhFL-61" value="Store Working&amp;nbsp;&lt;div&gt;State&lt;/div&gt;" style="rounded=1;whiteSpace=wrap;html=1;" vertex="1" parent="WIyWlLk6GJQsqaUBKTNV-1">
          <mxGeometry x="600" y="190" width="120" height="60" as="geometry" />
        </mxCell>
        <mxCell id="ozT5iislFc4H9YeLrhFL-73" style="edgeStyle=orthogonalEdgeStyle;rounded=0;orthogonalLoop=1;jettySize=auto;html=1;" edge="1" parent="WIyWlLk6GJQsqaUBKTNV-1" source="ozT5iislFc4H9YeLrhFL-79">
          <mxGeometry relative="1" as="geometry">
            <mxPoint x="1320" y="470" as="targetPoint" />
            <Array as="points">
              <mxPoint x="1430" y="260" />
              <mxPoint x="1430" y="470" />
            </Array>
          </mxGeometry>
        </mxCell>
        <mxCell id="ozT5iislFc4H9YeLrhFL-65" value="Store Pitch Byte" style="rounded=1;whiteSpace=wrap;html=1;" vertex="1" parent="WIyWlLk6GJQsqaUBKTNV-1">
          <mxGeometry x="1070" y="230" width="120" height="60" as="geometry" />
        </mxCell>
        <mxCell id="ozT5iislFc4H9YeLrhFL-77" value="" style="edgeStyle=orthogonalEdgeStyle;rounded=0;orthogonalLoop=1;jettySize=auto;html=1;" edge="1" parent="WIyWlLk6GJQsqaUBKTNV-1" source="ozT5iislFc4H9YeLrhFL-67" target="ozT5iislFc4H9YeLrhFL-76">
          <mxGeometry relative="1" as="geometry" />
        </mxCell>
        <mxCell id="ozT5iislFc4H9YeLrhFL-67" value="Store Velocity Byte" style="rounded=1;whiteSpace=wrap;html=1;" vertex="1" parent="WIyWlLk6GJQsqaUBKTNV-1">
          <mxGeometry x="895" y="110" width="120" height="60" as="geometry" />
        </mxCell>
        <mxCell id="ozT5iislFc4H9YeLrhFL-78" style="edgeStyle=orthogonalEdgeStyle;rounded=0;orthogonalLoop=1;jettySize=auto;html=1;" edge="1" parent="WIyWlLk6GJQsqaUBKTNV-1" source="ozT5iislFc4H9YeLrhFL-76">
          <mxGeometry relative="1" as="geometry">
            <mxPoint x="1430" y="260" as="targetPoint" />
          </mxGeometry>
        </mxCell>
        <mxCell id="ozT5iislFc4H9YeLrhFL-76" value="Set Data&amp;nbsp;&lt;div&gt;Received Flag&lt;/div&gt;" style="shape=parallelogram;perimeter=parallelogramPerimeter;whiteSpace=wrap;html=1;fixedSize=1;" vertex="1" parent="WIyWlLk6GJQsqaUBKTNV-1">
          <mxGeometry x="1130" y="110" width="120" height="60" as="geometry" />
        </mxCell>
        <mxCell id="ozT5iislFc4H9YeLrhFL-80" value="" style="edgeStyle=orthogonalEdgeStyle;rounded=0;orthogonalLoop=1;jettySize=auto;html=1;" edge="1" parent="WIyWlLk6GJQsqaUBKTNV-1" source="ozT5iislFc4H9YeLrhFL-65" target="ozT5iislFc4H9YeLrhFL-79">
          <mxGeometry relative="1" as="geometry">
            <mxPoint x="1320" y="470" as="targetPoint" />
            <mxPoint x="1190" y="260" as="sourcePoint" />
            <Array as="points" />
          </mxGeometry>
        </mxCell>
        <mxCell id="ozT5iislFc4H9YeLrhFL-79" value="Set Pitch&lt;div&gt;Receive Flag&lt;/div&gt;" style="shape=parallelogram;perimeter=parallelogramPerimeter;whiteSpace=wrap;html=1;fixedSize=1;" vertex="1" parent="WIyWlLk6GJQsqaUBKTNV-1">
          <mxGeometry x="1260" y="230" width="120" height="60" as="geometry" />
        </mxCell>
        <mxCell id="ozT5iislFc4H9YeLrhFL-84" value="" style="edgeStyle=orthogonalEdgeStyle;rounded=0;orthogonalLoop=1;jettySize=auto;html=1;" edge="1" parent="WIyWlLk6GJQsqaUBKTNV-1" source="ozT5iislFc4H9YeLrhFL-81" target="ozT5iislFc4H9YeLrhFL-82">
          <mxGeometry relative="1" as="geometry" />
        </mxCell>
        <mxCell id="ozT5iislFc4H9YeLrhFL-81" value="Restore Working&lt;div&gt;State&lt;/div&gt;" style="rounded=1;whiteSpace=wrap;html=1;" vertex="1" parent="WIyWlLk6GJQsqaUBKTNV-1">
          <mxGeometry x="600" y="620" width="120" height="60" as="geometry" />
        </mxCell>
        <mxCell id="ozT5iislFc4H9YeLrhFL-82" value="Return From&amp;nbsp;&lt;div&gt;Interrupt&lt;/div&gt;" style="rounded=1;whiteSpace=wrap;html=1;" vertex="1" parent="WIyWlLk6GJQsqaUBKTNV-1">
          <mxGeometry x="600" y="720" width="120" height="60" as="geometry" />
        </mxCell>
      </root>
    </mxGraphModel>
  </diagram>
</mxfile>
